<?xml version="1.0" standalone="no"?>
<!DOCTYPE svg PUBLIC "-//W3C//DTD SVG 20010904//EN"
 "http://www.w3.org/TR/2001/REC-SVG-20010904/DTD/svg10.dtd">
<svg version="1.0" xmlns="http://www.w3.org/2000/svg"
 width="358.000000pt" height="358.000000pt" viewBox="0 0 358.000000 358.000000"
 preserveAspectRatio="xMidYMid meet">
<metadata>
Created by potrace 1.11, written by Peter Selinger 2001-2013
</metadata>
<g transform="translate(0.000000,358.000000) scale(0.100000,-0.100000)"
fill="#000000" stroke="none">
<path d="M990 3311 c-415 -130 -761 -239 -768 -241 -20 -8 -32 -120 -39 -375
-16 -627 87 -1150 318 -1609 241 -479 646 -841 1142 -1020 l127 -46 128 46
c759 275 1256 929 1412 1859 41 245 53 429 46 735 -6 268 -14 391 -28 405 -11
11 -1542 485 -1563 484 -11 -1 -360 -108 -775 -238z m1040 -650 c313 -90 568
-346 652 -656 32 -119 32 -357 0 -470 -98 -345 -379 -607 -720 -671 -105 -20
-314 -14 -407 11 -76 21 -207 82 -282 132 -177 117 -319 317 -378 531 -26 92
-31 300 -10 407 30 156 110 318 217 440 123 139 340 262 526 295 86 16 318 5
402 -19z"/>
<path d="M1942 1917 l-382 -382 -153 153 -152 152 -103 -103 -102 -102 255
-255 255 -255 485 485 485 485 -103 103 -102 102 -383 -383z"/>
</g>
</svg>
